<?xml version="1.0" standalone="no"?>
<!DOCTYPE svg PUBLIC "-//W3C//DTD SVG 20010904//EN" "http://www.w3.org/TR/2001/REC-SVG-20010904/DTD/svg10.dtd">
<!-- Created using Krita: https://krita.org -->
<svg xmlns="http://www.w3.org/2000/svg" 
    xmlns:xlink="http://www.w3.org/1999/xlink"
    xmlns:krita="http://krita.org/namespaces/svg/krita"
    xmlns:sodipodi="http://sodipodi.sourceforge.net/DTD/sodipodi-0.dtd"
    width="122.88pt"
    height="122.88pt"
    viewBox="0 0 122.88 122.88">
<defs/>
<path id="shape0" transform="matrix(0.930913611733041 0 0 -0.930913611733041 29.54952862006 92.0069278927452)" fill="none" stroke="#c57229" stroke-width="3.9528" stroke-linecap="round" stroke-linejoin="round" d="M8.12528 27.1322L18.0562 11.0864L0 0" sodipodi:nodetypes="ccc"/><path id="shape01" transform="matrix(0.930913611733041 0 0 -0.930913611733041 61.4398080062203 108.367313169965)" fill="none" stroke="#c57229" stroke-width="3.9528" stroke-linecap="round" stroke-linejoin="round" d="M3.55271e-15 46.7869L12.653 20.9203L0 0" sodipodi:nodetypes="ccc"/><path id="shape02" transform="matrix(0.930913611733041 0 0 -0.930913611733041 89.0653831557363 97.6054730834548)" fill="none" stroke="#c57229" stroke-width="3.9528" stroke-linecap="round" stroke-linejoin="round" d="M0 31.4595L19.3542 17.7291L16.5942 0" sodipodi:nodetypes="ccc"/><path id="shape1" transform="matrix(0.930913611733041 0 0 0.930913611733041 29.5497206138397 30.6930721197717)" fill="none" stroke="#c57229" stroke-width="3.9528" stroke-linecap="round" stroke-linejoin="round" d="M8.12528 27.1322L18.0562 11.0864L0 0" sodipodi:nodetypes="ccc"/><path id="shape03" transform="matrix(0.930913611733041 0 0 0.930913611733041 61.44 14.5126868300348)" fill="none" stroke="#c57229" stroke-width="3.9528" stroke-linecap="round" stroke-linejoin="round" d="M3.55271e-15 46.7869L12.653 20.9203L0 0" sodipodi:nodetypes="ccc"/><path id="shape04" transform="matrix(0.930913611733041 0 0 0.930913611733041 89.065575149516 25.2745269165452)" fill="none" stroke="#c57229" stroke-width="3.9528" stroke-linecap="round" stroke-linejoin="round" d="M0 31.4595L19.3542 17.7291L16.5942 0" sodipodi:nodetypes="ccc"/><ellipse id="shape2" transform="matrix(0.930913611733041 0 0 0.662538713128914 68.6273159040311 48.5999995172063)" rx="23.6399996213618" ry="19.3800003356111" cx="23.6399996213618" cy="19.3800003356111" fill="#c06c22" fill-rule="evenodd" stroke="none" stroke-width="4.4334" stroke-linecap="square" stroke-linejoin="bevel"/><ellipse id="shape05" transform="matrix(0.930913611733041 0 0 0.662538713128914 43.2123632633443 53.0758370763932)" rx="18.3959996967765" ry="12.6244138762942" cx="18.3959996967765" cy="12.6244138762942" fill="#c06c22" fill-rule="evenodd" stroke-opacity="0" stroke="#000000" stroke-width="0" stroke-linecap="square" stroke-linejoin="bevel"/><ellipse id="shape06" transform="matrix(0.843128877698374 0 0 0.91688406705548 23.9190882869007 46.6799995362796)" rx="16.0799999381977" ry="16.098000820454" cx="16.0799999381977" cy="16.098000820454" fill="#c06c22" fill-rule="evenodd" stroke-opacity="0" stroke="#000000" stroke-width="0" stroke-linecap="square" stroke-linejoin="bevel"/><path id="shape3" transform="matrix(0.930615603309482 0.023553160866292 -0.023553160866292 0.930615603309482 -0.916276267545693 37.1469357972956)" fill="#8f5a2b" fill-rule="evenodd" stroke="none" stroke-width="4.4334" stroke-linecap="square" stroke-linejoin="bevel" d="M0 4.93972C14.5574 -1.59997 29.6079 -0.930635 35.9279 2.80936C31.0994 6.94289 37.5096 14.3923 38.7477 19.1959C39.9858 23.9995 34.2398 20.5655 33.3298 20.5188C33.6699 17.9273 31.2169 11.7804 27.0342 12.348C22.8027 12.9223 16.6717 12.5891 14.7902 10.8531C17.4909 11.6686 32.9757 10.1442 25.5166 7.22123C18.0576 4.29822 16.4371 9.10401 9.16834 8.63804C25.7435 3.60256 11.6291 2.24051 0 4.93972Z" sodipodi:nodetypes="cczcsczcc"/><path id="shape07" transform="matrix(0.930615603309482 -0.023553160866292 -0.023553160866292 -0.930615603309482 -0.916276291863695 86.2383907462894)" fill="#8f5a2b" fill-rule="evenodd" stroke-opacity="0" stroke="#000000" stroke-width="0" stroke-linecap="square" stroke-linejoin="bevel" d="M0 4.93972C14.5574 -1.59997 29.6079 -0.930636 35.9279 2.80936C31.0994 6.94289 37.5096 14.3923 38.7477 19.1959C39.9858 23.9995 34.2398 20.5655 33.3298 20.5188C33.6699 17.9273 31.2169 11.7804 27.0342 12.348C22.8027 12.9223 16.6717 12.5891 14.7902 10.8531C17.4909 11.6686 32.9757 10.1442 25.5166 7.22123C18.0576 4.29822 16.4371 9.10401 9.16834 8.63804C25.7435 3.60256 11.6291 2.24051 0 4.93972Z" sodipodi:nodetypes="cczcsczcc"/>
</svg>
